<svg width="471" height="374" viewBox="0 0 471 374" fill="none" xmlns="http://www.w3.org/2000/svg">
<path d="M452.826 226.698C444.316 236.353 433.689 243.325 423.364 250.101C417.085 254.229 410.645 258.484 404.597 263.317C386.192 278.114 370.131 295.61 356.959 315.211L354.738 318.541C345.349 332.671 334.7 348.686 317.737 351.518C304.88 353.669 291.143 347.772 275.66 333.492C265.554 324.161 257.16 317.651 249.193 313.014C238.671 306.886 229.074 304.284 220.644 305.267C210.828 306.423 202.144 312.448 194.917 323.224C191.853 327.78 189.136 332.775 186.557 337.62C181.701 346.639 176.683 355.959 169.005 362.781C168.334 363.37 167.652 363.937 166.947 364.492C160.302 369.535 152.397 372.651 144.099 373.499C135.733 374.424 127.267 373.597 119.239 371.071C102.149 365.775 87.938 354.236 77.462 344.777C63.0354 331.878 49.6144 317.897 37.3159 302.955C23.2787 285.703 13.034 269.203 6.84789 253.894C1.01656 239.478 -1.14095 223.839 0.569286 208.382C2.5234 192.09 9.12577 178.226 19.6479 168.329C29.7538 158.812 42.8545 153.355 55.4927 148.082C60.6844 145.92 66.0496 143.688 71.1256 141.214C85.0511 134.365 97.696 125.173 108.508 114.041C119.358 102.943 128.318 90.1431 135.033 76.1499C138.26 69.1411 141.112 61.9659 143.578 54.6546C150.655 34.7897 157.35 16.0116 180.279 5.14259C193.148 -0.962575 208.365 -1.64479 224.217 3.16534C238.185 7.38577 252.315 15.7688 263.993 26.7651C276.285 38.3279 286.553 52.0645 296.485 65.3618C304.614 76.0689 312.916 87.1692 322.166 97.0439C332.573 108.098 349.431 122.482 370.637 128.102C380.269 130.657 390.364 130.645 400.134 130.634C408.425 130.634 417.016 130.634 425.434 132.137C435.447 133.964 449.438 138.497 459.209 149.736C467.048 158.755 470.841 170.722 470.17 184.424C469.454 197.269 465.218 209.67 457.925 220.269C456.352 222.51 454.65 224.656 452.826 226.698ZM374.673 290.155C383.57 280.067 393.31 270.757 403.788 262.323C409.847 257.455 416.357 253.177 422.658 249.037C435.655 240.504 447.923 232.444 456.884 219.448C464.037 209.058 468.197 196.902 468.91 184.308C469.557 171.011 465.88 159.344 458.26 150.58C448.733 139.63 435.031 135.19 425.214 133.409C416.912 131.894 408.39 131.906 400.146 131.917C390.294 131.917 380.119 131.917 370.314 129.35C348.818 123.638 331.775 109.104 321.253 97.9342C311.91 88.0018 303.608 76.8899 295.572 66.1365C285.674 52.8855 275.441 39.1951 263.196 27.7016C251.633 16.8326 237.757 8.56518 223.882 4.391C208.284 -0.315067 193.391 0.344018 180.822 6.31043C158.367 16.9598 151.753 35.4834 144.769 55.094C142.287 62.4473 139.419 69.6648 136.178 76.7164C129.407 90.8372 120.364 103.751 109.41 114.943C98.496 126.177 85.7342 135.455 71.6806 142.37C66.5583 144.868 61.1816 147.111 55.9668 149.308C43.4095 154.546 30.4361 159.946 20.492 169.311C10.1896 179.001 3.72593 192.587 1.79494 208.625C0.115094 223.863 2.24879 239.28 8.00417 253.489C14.1209 268.682 24.3078 285.078 38.2757 302.226C50.5359 317.097 63.9103 331.012 78.283 343.852C88.6895 353.218 102.738 364.665 119.574 369.88C127.436 372.345 135.723 373.156 143.914 372.262C151.979 371.433 159.663 368.406 166.126 363.509C166.808 362.989 167.479 362.422 168.126 361.844C175.63 355.184 180.591 345.957 185.401 337.03C188.014 332.174 190.72 327.144 193.83 322.53C201.3 311.43 210.261 305.186 220.425 304.03C229.132 303.012 239.006 305.672 249.76 311.939C257.854 316.633 266.283 323.189 276.458 332.59C291.594 346.581 305.007 352.374 317.46 350.293C324.756 349.137 331.486 345.194 338.042 338.441C343.823 332.451 348.795 325.028 353.559 317.859L355.779 314.529C361.537 305.999 367.848 297.857 374.673 290.155Z" fill="white" fill-opacity="0.27"/>
</svg>
